<?xml version="1.0" encoding="UTF-8" standalone="no"?>
<!-- Created with Inkscape (http://www.inkscape.org/) -->
<svg
   xmlns:svg="http://www.w3.org/2000/svg"
   xmlns="http://www.w3.org/2000/svg"
   version="1.0"
   width="2000"
   height="2000"
   id="svg2">
  <defs
     id="defs4" />
  <g
     id="layer1">
    <path
       style="fill:#000000"
       d="M 934.03575,900 977.85225,900 C 978.06767,900 978.24109,900.17342 978.24109,900.38884 L 978.24109,1099.5875 C 978.24109,1099.803 978.06767,1099.9764 977.85225,1099.9764 L 934.03575,1099.9764 C 933.82034,1099.9764 933.64691,1099.803 933.64691,1099.5875 L 933.64691,900.38884 C 933.64691,900.17342 933.82034,900 934.03575,900 z M 1022.6597,900.02356 1066.4762,900.02356 C 1066.6916,900.02356 1066.865,900.19698 1066.865,900.4124 L 1066.865,1099.6111 C 1066.865,1099.8265 1066.6916,1099.9999 1066.4762,1099.9999 L 1022.6597,1099.9999 C 1022.4442,1099.9999 1022.2708,1099.8265 1022.2708,1099.6111 L 1022.2708,900.4124 C 1022.2708,900.19698 1022.4442,900.02356 1022.6597,900.02356 z"
       id="rect1920" />
  </g>
</svg>
